Coordinates
nRows=230
nColumns=2
inDegrees=yes
endheader
time	ankle_angle_r	
6.81956	 -4.319811	
6.85282	 -4.287720	
6.88609	 -4.333827	
6.91935	 -4.318472	
6.95262	 -4.272599	
6.98589	 -4.333496	
7.01915	 -4.363903	
7.05242	 -4.272766	
7.08569	 -4.348506	
7.11895	 -4.348755	
7.15222	 -4.273346	
7.18548	 -4.318237	
7.21875	 -4.348755	
7.25202	 -4.272461	
7.28528	 -4.303808	
7.31855	 -4.348755	
7.35181	 -4.287720	
7.38508	 -4.305217	
7.41835	 -4.348755	
7.45161	 -4.272461	
7.48488	 -4.318237	
7.51815	 -4.322755	
7.55141	 -4.299773	
7.58468	 -4.318237	
7.61794	 -4.318237	
7.65121	 -4.274354	
7.68448	 -4.318237	
7.71774	 -4.318237	
7.75101	 -4.261568	
7.78427	 -4.318237	
7.81754	 -4.266706	
7.85081	 -4.287720	
7.88407	 -4.315668	
7.91734	 -4.280459	
7.9506	 -4.287720	
7.98387	 -4.296299	
8.01714	 -4.287720	
8.0504	 -4.266361	
8.08367	 -4.315088	
8.11694	 -4.272461	
8.1502	 -4.275804	
8.18347	 -4.302979	
8.21673	 -4.245480	
8.25	 -4.264468	
8.28327	 -4.314507	
8.31653	 -4.261029	
8.3498	 -4.283797	
8.38306	 -4.302979	
8.41633	 -4.268344	
8.4496	 -4.287720	
8.48286	 -4.322547	
8.51613	 -4.252796	
8.5494	 -4.266209	
8.58266	 -4.298378	
8.61593	 -4.267765	
8.64919	 -4.257202	
8.68246	 -4.302979	
8.71573	 -4.267474	
8.74899	 -4.252119	
8.78226	 -4.292900	
8.81552	 -4.267184	
8.84879	 -4.267087	
8.88206	 -4.297508	
8.91532	 -4.262769	
8.94859	 -4.257202	
8.98185	 -4.312477	
9.01512	 -4.257202	
9.04839	 -4.257202	
9.08165	 -4.299820	
9.11492	 -4.281573	
9.14819	 -4.272461	
9.18145	 -4.318237	
9.21472	 -4.270076	
9.24798	 -4.274652	
9.28125	 -4.335494	
9.31452	 -4.265734	
9.34778	 -4.272461	
9.38105	 -4.341835	
9.41431	 -4.281928	
9.44758	 -4.302979	
9.48085	 -4.326286	
9.51411	 -4.279768	
9.54738	 -4.310833	
9.58065	 -4.333754	
9.61391	 -4.295382	
9.64718	 -4.302979	
9.68044	 -4.318237	
9.71371	 -4.257718	
9.74698	 -4.303688	
9.78024	 -4.303881	
9.81351	 -4.264284	
9.84677	 -4.316948	
9.88004	 -4.311349	
9.91331	 -4.279253	
9.94657	 -4.302979	
9.97984	 -4.311639	
10.0131	 -4.287720	
10.0464	 -4.311832	
10.0796	 -4.333496	
10.1129	 -4.278672	
10.1462	 -4.312123	
10.1794	 -4.339514	
10.2127	 -4.263124	
10.246	 -4.302979	
10.2792	 -4.323965	
10.3125	 -4.272461	
10.3458	 -4.287720	
10.379	 -4.333496	
10.4123	 -4.298402	
10.4456	 -4.297734	
10.4788	 -4.343607	
10.5121	 -4.277617	
10.5454	 -4.293070	
10.5786	 -4.292577	
10.6119	 -4.277222	
10.6452	 -4.298314	
10.6784	 -4.318237	
10.7117	 -4.292191	
10.745	 -4.333496	
10.7782	 -4.329218	
10.8115	 -4.294617	
10.8448	 -4.336502	
10.878	 -4.283732	
10.9113	 -4.299088	
10.9446	 -4.329702	
10.9778	 -4.299281	
11.0111	 -4.295777	
11.0444	 -4.309987	
11.0776	 -4.280905	
11.1109	 -4.284409	
11.1442	 -4.299765	
11.1774	 -4.266226	
11.2107	 -4.275482	
11.244	 -4.302979	
11.2772	 -4.254375	
11.3105	 -4.269730	
11.3437	 -4.290354	
11.377	 -4.257202	
11.4103	 -4.293216	
11.4435	 -4.320581	
11.4768	 -4.259449	
11.5101	 -4.266009	
11.5433	 -4.316184	
11.5766	 -4.243900	
11.6099	 -4.240083	
11.6431	 -4.293011	
11.6764	 -4.287720	
11.7097	 -4.241943	
11.7429	 -4.289194	
11.7762	 -4.257202	
11.8095	 -4.243224	
11.8427	 -4.290087	
11.876	 -4.259376	
11.9093	 -4.227675	
11.9425	 -4.302085	
11.9758	 -4.242740	
12.0091	 -4.241943	
12.0423	 -4.317634	
12.0756	 -4.287213	
12.1089	 -4.212656	
12.1421	 -4.303292	
12.1754	 -4.287503	
12.2087	 -4.257442	
12.2419	 -4.318237	
12.2752	 -4.272534	
12.3085	 -4.257032	
12.3417	 -4.302712	
12.375	 -4.287720	
12.4083	 -4.271081	
12.4415	 -4.302979	
12.4748	 -4.272461	
12.5081	 -4.301478	
12.5413	 -4.318237	
12.5746	 -4.286777	
12.6079	 -4.300898	
12.6411	 -4.317101	
12.6744	 -4.315770	
12.7077	 -4.330836	
12.7409	 -4.304405	
12.7742	 -4.299932	
12.8075	 -4.314997	
12.8407	 -4.304696	
12.874	 -4.302979	
12.9073	 -4.331586	
12.9405	 -4.329482	
12.9738	 -4.300875	
13.0071	 -4.305179	
13.0403	 -4.320534	
13.0736	 -4.318237	
13.1069	 -4.335987	
13.1401	 -4.333496	
13.1734	 -4.330812	
13.2067	 -4.318237	
13.2399	 -4.333496	
13.2732	 -4.312290	
13.3065	 -4.348755	
13.3397	 -4.339253	
13.373	 -4.302979	
13.4062	 -4.333496	
13.4395	 -4.333496	
13.4728	 -4.322834	
13.506	 -4.348755	
13.5393	 -4.329749	
13.5726	 -4.302979	
13.6058	 -4.344814	
13.6391	 -4.344718	
13.6724	 -4.287720	
13.7056	 -4.318237	
13.7389	 -4.318237	
13.7722	 -4.281309	
13.8054	 -4.318237	
13.8387	 -4.328878	
13.872	 -4.266631	
13.9052	 -4.313426	
13.9385	 -4.312794	
13.9718	 -4.252198	
14.005	 -4.348755	
14.0383	 -4.308176	
14.0716	 -4.247238	
14.1048	 -4.312846	
14.1381	 -4.293207	
14.1714	 -4.282135	
14.2046	 -4.329599	
14.2379	 -4.293498	
14.2712	 -4.268951	
14.3044	 -4.297008	
14.3377	 -4.287720	
14.371	 -4.254272	
14.4042	 -4.318237	
14.4375	 -4.272461	
